<svg xmlns="http://www.w3.org/2000/svg" aria-hidden="true" style="position:absolute;width:0;height:0;overflow:hidden"><defs><symbol id="icon-support-1" viewBox="0 0 32 32"><path fill="#fdca00" d="M17.778 0C12.919 0 8.652 2.37 6.163 6.044c.474.356.948.83 1.422 1.422 1.896-2.844 5.096-4.859 8.652-5.333l1.541 2.489L19.2 2.133c5.57.711 9.956 4.978 10.667 10.548l-2.489 1.422 2.489 1.422c-.474 3.674-2.607 6.874-5.57 8.652.237.474.356.83.356 1.304 0 .356 0 .593-.119.948 4.504-2.37 7.585-7.111 7.585-12.444C32 6.281 25.6 0 17.778 0zm3.555 23.23c-3.319-2.607-4.148-1.304-5.689.119-1.067 1.067-3.674-1.067-5.926-3.319s-4.504-4.859-3.437-5.926c1.541-1.422 2.844-2.37.119-5.689-2.607-3.2-4.385-.711-5.807.711-1.659 1.659-.119 7.822 6.044 13.867s12.326 7.585 13.985 6.044c1.541-1.422 4.03-3.2.711-5.807zm-9.956-6.874c0-2.844 3.437-3.437 3.437-4.504 0-.593-.474-.83-.83-.83-.711 0-1.185.83-1.185.83l-1.422-.948s.711-1.659 2.844-1.659c1.304 0 2.726.711 2.726 2.37 0 2.489-3.2 2.963-3.2 3.911h3.319v1.659h-5.57c-.119-.356-.119-.593-.119-.83zm6.401-2.252 3.081-4.741h2.37v4.385h.948v1.541h-.948v1.896h-1.896v-1.896h-3.556v-1.185zm3.437-.474v-1.778c0-.474.119-.83.119-.83s-.119.474-.356.83l-1.185 1.778h1.422z" style="fill:var(--color1, #fdca00)"/></symbol><symbol id="icon-payment" viewBox="0 0 32 32"><path fill="#9e9e9e" d="M12.846 52.663c-16.411 0-29.76-13.349-29.76-29.76s13.349-29.76 29.76-29.76 29.76 13.349 29.76 29.76-13.349 29.76-29.76 29.76zm0-58.194c-15.68 0-28.434 12.754-28.434 28.434s12.754 28.434 28.434 28.434c15.68 0 28.434-12.754 28.434-28.434S28.526-5.531 12.846-5.531z" opacity=".1" style="fill:var(--color2, #9e9e9e)"/><path fill="#9e9e9e" d="M23.954 13.76H29.806c1.234 0 2.057.777 2.057 2.011v8.731c0 1.189-.823 2.011-2.011 2.011H9.235c-1.189 0-1.966-.823-2.011-2.011v-4.846H4.298c-1.189 0-2.011-.823-2.011-2.011V8.914c0-1.234.777-2.057 2.011-2.057h17.6c1.189 0 2.011.823 2.011 2.011v4.526c.046.137.046.229.046.366zm-.96 1.006V9.006c0-.777-.366-1.143-1.143-1.143H4.434c-.823 0-1.143.32-1.143 1.143v5.714c6.583.046 13.12.046 19.703.046zm.96.96h3.383c.366 0 .503.091.64.457.274.731.777 1.28 1.509 1.6.274.091.366.274.366.549v3.657c0 .274-.091.457-.366.549-.731.32-1.234.869-1.554 1.646-.137.32-.274.411-.594.411H11.612c-.274 0-.457-.137-.594-.411-.274-.777-.777-1.326-1.554-1.646a.55.55 0 0 1-.366-.549v-2.331H8.092V24.458c0 .777.32 1.143 1.143 1.143h20.389c.777 0 1.097-.32 1.097-1.143v-8.594c0-.777-.32-1.097-1.097-1.097h-5.577c-.046 0-.183.091-.183.137.091.274.091.549.091.823zM3.291 16.731c0 .411-.046.777 0 1.189.046.183.183.411.32.549.183.229.457.229.731.229h17.829a.872.872 0 0 0 .731-.731c.046-.411 0-.777 0-1.234H3.291zm19.063 6.858c.046.046.046.046.091.046h4.617c.091 0 .183-.091.229-.183.32-.64.823-1.143 1.417-1.509.091-.046.137-.183.137-.274v-2.971c0-.091-.091-.229-.183-.274-.594-.366-1.097-.869-1.417-1.509-.091-.137-.137-.183-.32-.183H23.907v1.006c0 .274-.091.503-.137.777-.046.137-.046.274-.046.411a4.84 4.84 0 0 1 .091 2.149c-.137 1.006-.64 1.829-1.463 2.514zm-6.217-3.932c-.274 1.326.411 2.743 1.6 3.474a3.524 3.524 0 0 0 3.977-.32c.914-.777 1.463-2.149 1.143-3.246a13.72 13.72 0 0 1-1.371.091h-5.348zm.594 3.977c-.64-.549-1.051-1.097-1.326-1.783s-.32-1.417-.274-2.103h-4.937c0 .046-.046.046-.046.091v1.92c0 .091.091.183.183.229a3.832 3.832 0 0 1 1.371 1.463c.091.183.183.229.366.229h3.84c.274-.046.503-.046.823-.046z" style="fill:var(--color2, #9e9e9e)"/><path fill="#9e9e9e" d="M5.257 9.829v-.96h10.789v.96H5.257zM5.257 13.76v-2.926h2.926v2.926H5.257zM21.989 8.869v.96h-1.92v-.96h1.92zM17.097 8.869h1.92v.96h-1.92v-.96z" style="fill:var(--color2, #9e9e9e)"/></symbol><symbol id="icon-preferences-7" viewBox="0 0 32 32"><path fill="#fdca00" d="M15.294 29.096c6.955 0 12.592-5.863 12.592-13.096S22.248 2.904 15.294 2.904C8.339 2.904 2.702 8.767 2.702 16S8.34 29.096 15.294 29.096z" style="fill:var(--color1, #fdca00)"/><path fill="#9e9e9e" d="M15.294 31.906C6.86 31.906 0 24.772 0 16S6.86.094 15.294.094 30.588 7.228 30.588 16s-6.86 15.906-15.294 15.906zm0-31.103C7.236.803.681 7.62.681 16s6.555 15.197 14.613 15.197S29.907 24.38 29.907 16c0-8.381-6.555-15.197-14.613-15.197z" opacity=".1" style="fill:var(--color2, #9e9e9e)"/><path fill="#fff" d="M16.106 8.169c-2.276 0-4.275 1.254-5.441 3.199.222.188.444.439.666.753.888-1.505 2.387-2.572 4.053-2.822l.722 1.317.666-1.317c2.609.376 4.663 2.634 4.996 5.582l-1.166.753 1.166.753c-.222 1.944-1.221 3.638-2.609 4.579.111.251.167.439.167.69 0 .188 0 .314-.056.502 2.11-1.254 3.553-3.763 3.553-6.586-.055-4.077-3.053-7.401-6.717-7.401zm1.666 12.293c-1.554-1.38-1.943-.69-2.665.063-.5.564-1.721-.564-2.776-1.756s-2.11-2.572-1.61-3.136c.722-.753 1.332-1.254.056-3.011-1.221-1.693-2.054-.376-2.72.376-.777.878-.056 4.139 2.831 7.338s5.774 4.014 6.551 3.199c.722-.753 1.888-1.694.333-3.073zm-4.664-3.637c0-1.505 1.61-1.819 1.61-2.383 0-.314-.222-.439-.389-.439-.333 0-.555.439-.555.439l-.666-.502s.333-.878 1.332-.878c.611 0 1.277.376 1.277 1.254 0 1.317-1.499 1.568-1.499 2.07h1.554v.878h-2.609c-.056-.188-.056-.314-.056-.439zm2.998-1.192 1.443-2.509h1.11v2.321h.444v.815h-.444v1.003h-.888V16.26h-1.665v-.627zm1.61-.251v-.941c0-.251.056-.439.056-.439s-.056.251-.167.439l-.555.941h.666z" style="fill:var(--color3, #fff)"/></symbol><symbol id="icon-preferences" viewBox="0 0 32 32"><path fill="#fdca00" d="M16 29.174c7.276 0 13.174-5.898 13.174-13.174S23.276 2.826 16 2.826 2.826 8.724 2.826 16 8.724 29.174 16 29.174z" style="fill:var(--color1, #fdca00)"/><path fill="#9e9e9e" d="M16 32C7.177 32 0 24.823 0 16S7.177 0 16 0s16 7.177 16 16-7.177 16-16 16zM16 .713C7.57.713.713 7.57.713 16S7.57 31.287 16 31.287 31.287 24.43 31.287 16 24.43.713 16 .713z" opacity=".1" style="fill:var(--color2, #9e9e9e)"/><path fill="#fff" d="M24.321 15.6a8.228 8.228 0 1 0-10.73 7.841.36.36 0 0 0 .284-.035.338.338 0 0 0 .152-.192l2.078-6.586a1.029 1.029 0 1 0-.452-1.954l-2.745-2.746a.343.343 0 0 0-.485.484l2.744 2.747c-.211.43-.09.948.288 1.241l-1.98 6.276a7.55 7.55 0 1 1 5.682-.187l-.214-1.008a.342.342 0 0 0-.563-.184l-2.063 1.842a.342.342 0 0 0 .124.583l2.634.841a.342.342 0 0 0 .44-.398l-.21-.989a8.2 8.2 0 0 0 5.015-7.575zm-8.228-.343a.344.344 0 1 1-.001.687.344.344 0 0 1 .001-.687zm1.129 7.991 1.174-1.047.324 1.527-1.498-.48z" style="fill:var(--color3, #fff)"/><path fill="#2196f3" d="M16.12 9.086v.686a.343.343 0 1 0 .686 0v-.686a.344.344 0 0 0-.686 0zM9.949 15.257a.344.344 0 0 0 0 .686h.686a.343.343 0 1 0 0-.686h-.686zM22.977 15.943a.343.343 0 1 0 0-.686h-.686a.344.344 0 0 0 0 .686h.686z" style="fill:var(--color4, #2196f3)"/></symbol><symbol id="icon-trunk" viewBox="0 0 32 32"><path fill="#9e9e9e" d="M16.299 42.197c-16.23 0-29.434-11.683-29.434-26.043S.069-9.889 16.299-9.889 45.733 1.794 45.733 16.154 32.528 42.197 16.299 42.197zm0-50.916c-15.5 0-28.111 11.158-28.111 24.872S.798 41.025 16.299 41.025c15.501 0 28.111-11.158 28.111-24.872S31.8-8.719 16.299-8.719z" opacity=".1" style="fill:var(--color2, #9e9e9e)"/><path fill="#9e9e9e" d="M7.913 9.508v2.195c0 .095.002.19-.013.283-.041.276-.305.474-.613.469-.3-.005-.55-.197-.593-.464-.015-.093-.013-.189-.013-.283-.002-.983.004-1.966-.004-2.949a.72.72 0 0 1 .28-.601c.358-.3.701-.616 1.051-.924.302-.266.488-.298.886-.148 3.694 1.397 7.387 2.796 11.083 4.189.161.061.348.093.521.093 1.893.005 3.785.003 5.678-.005.189-.001.29.049.386.196a367.346 367.346 0 0 0 2.297 3.488c.068.102.17.196.281.264.486.3.982.586 1.465.887.072.045.139.147.14.223.006 2.083 0 4.166-.003 6.248 0 .042-.008.085-.015.155h-.814c-.478 0-.956.007-1.432-.005-.186-.005-.265.035-.317.209-.368 1.193-1.583 2.001-2.977 1.998-1.393-.003-2.605-.819-2.967-2.012-.044-.147-.102-.196-.277-.195-3.597.006-7.192.006-10.789.001-.16 0-.221.041-.263.183-.365 1.202-1.562 2.015-2.957 2.023-1.393.008-2.606-.79-2.986-1.988-.052-.164-.13-.2-.303-.198-.526.008-1.053.006-1.58.003-.479-.003-.704-.207-.704-.635v-2.101h-.502c-.453-.005-.734-.215-.732-.551s.277-.541.736-.541h15.308c0-.512.003-1.004-.004-1.496 0-.054-.043-.108-.071-.16a1934.13 1934.13 0 0 0-2.769-5.066.5.5 0 0 0-.222-.212c-2.011-.845-4.027-1.683-6.041-2.522-.038-.016-.076-.025-.152-.049zm12.972 12.221c.366 0 .703-.011 1.039.004.193.009.263-.052.317-.213.425-1.255 1.768-2.059 3.216-1.938 1.298.109 2.313.849 2.706 1.967.022.062.071.166.113.168.406.012.812.008 1.217.008v-2.18c-.208 0-.395.006-.584-.001-.373-.014-.631-.245-.628-.553s.266-.53.64-.538c.193-.004.387-.001.593-.001v-.801c-.002-.262.087-.568-.036-.773s-.463-.305-.699-.463a.892.892 0 0 0-.523-.143c-2.362.005-4.725.004-7.086.004h-.285v5.453zm-1.258-1.606H9.788c.529.39.9.828 1.068 1.376.055.181.141.234.35.234 2.715-.007 5.43-.005 8.145-.005h.277v-1.605zM8.387 8.478c.081.036.159.073.239.106 3.098 1.29 6.196 2.583 9.297 3.867.341.141.488.347.487.681-.008 1.87-.005 3.74-.005 5.611v.255h1.22c.006-.062.013-.111.013-.16 0-2.111-.003-4.221.006-6.331 0-.166-.101-.204-.233-.254L8.97 8.303c-.344-.131-.344-.131-.583.175zm14.965 6.693h4.146c-.046-.076-.079-.133-.115-.188-.517-.784-1.037-1.567-1.545-2.355-.087-.135-.188-.172-.351-.171-.633.007-1.266.004-1.898.005-.078 0-.156.008-.236.013v2.696zM7.904 23.932c1.026.004 1.857-.724 1.86-1.627.003-.902-.825-1.64-1.845-1.646-1.015-.007-1.854.732-1.858 1.633-.002.908.817 1.637 1.843 1.64zm17.288 0c1.025.001 1.853-.729 1.854-1.633 0-.9-.834-1.639-1.851-1.64s-1.849.735-1.85 1.638c-.003.908.821 1.635 1.847 1.636zm-3.097-8.753v-2.703h-1.197v2.703h1.197zM3.606 21.748c.401 0 .786.007 1.169-.007.054-.002.118-.092.154-.153.187-.32.345-.656.556-.962.128-.185.333-.328.523-.507H3.605l.001 1.63zm13.514-6.859.052-.01c0-.482.002-.963-.004-1.445a.154.154 0 0 0-.08-.117c-.333-.145-.673-.281-1.07-.445.389.709.745 1.363 1.102 2.016z" style="fill:var(--color2, #9e9e9e)"/><path fill="#9e9e9e" d="M7.903 14.715c.001.334.007.669 0 1.004-.027 1.366-1.343 1.906-2.552 1.545-.718-.213-1.197-.907-1.126-1.581.027-.266.262-.473.56-.495.294-.022.571.152.641.411.023.084.025.173.04.259.048.275.214.406.531.418.451.019.662-.145.669-.547.011-.603.004-1.207.005-1.81 0-.124-.006-.247.003-.37.024-.327.294-.556.636-.546.334.009.586.239.593.558.007.385 0 .77 0 1.155zM8.53 22.293c.004.298-.266.541-.605.546-.343.005-.619-.226-.627-.526-.009-.308.271-.564.615-.563.333 0 .613.246.617.542zM25.81 22.294c.004.298-.267.541-.606.546-.343.005-.617-.226-.626-.526-.009-.308.271-.564.616-.562.334.001.613.247.616.543z" style="fill:var(--color2, #9e9e9e)"/></symbol><symbol id="icon-user" viewBox="0 0 32 32"><path fill="#dbdbdb" d="M31.961 16.019C31.961 24.845 24.806 32 15.98 32S-.001 24.845-.001 16.019 7.154.038 15.98.038s15.981 7.155 15.981 15.981z" style="fill:var(--color5, #dbdbdb)"/><path fill="#fff" d="M22.829 10.331c0 3.792-3.173 10.138-6.965 10.138S9.17 14.123 9.17 10.331s3.057-6.849 6.849-6.849c3.753 0 6.81 3.057 6.81 6.849zM25.848 25.654c0 1.741-4.605 4.643-10.022 4.643s-9.635-2.941-9.635-4.643 4.411-3.134 9.828-3.134 9.828 1.393 9.828 3.134z" style="fill:var(--color3, #fff)"/></symbol><symbol id="icon-support" viewBox="0 0 32 32"><path fill="#fdca00" d="M17.778 0C12.919 0 8.652 2.37 6.163 6.044c.474.356.948.83 1.422 1.422 1.896-2.844 5.096-4.859 8.652-5.333l1.541 2.489L19.2 2.133c5.57.711 9.956 4.978 10.667 10.548l-2.489 1.422 2.489 1.422c-.474 3.674-2.607 6.874-5.57 8.652.237.474.356.83.356 1.304 0 .356 0 .593-.119.948 4.504-2.37 7.585-7.111 7.585-12.444C32 6.281 25.6 0 17.778 0zm3.555 23.23c-3.319-2.607-4.148-1.304-5.689.119-1.067 1.067-3.674-1.067-5.926-3.319s-4.504-4.859-3.437-5.926c1.541-1.422 2.844-2.37.119-5.689-2.607-3.2-4.385-.711-5.807.711-1.659 1.659-.119 7.822 6.044 13.867s12.326 7.585 13.985 6.044c1.541-1.422 4.03-3.2.711-5.807zm-9.955-6.874c0-2.844 3.437-3.437 3.437-4.504 0-.593-.474-.83-.83-.83-.711 0-1.185.83-1.185.83l-1.422-.948s.711-1.659 2.844-1.659c1.304 0 2.726.711 2.726 2.37 0 2.489-3.2 2.963-3.2 3.911h3.319v1.659h-5.57c-.119-.356-.119-.593-.119-.83zm6.4-2.252 3.081-4.741h2.37v4.385h.948v1.541h-.948v1.896h-1.896v-1.896h-3.556v-1.185zm3.437-.474v-1.778c0-.474.119-.83.119-.83s-.119.474-.356.83l-1.185 1.778h1.422z" style="fill:var(--color1, #fdca00)"/></symbol><symbol id="icon-preferences-5" viewBox="0 0 32 32"><path fill="#fdca00" d="M29.174 16c0 7.276-5.898 13.174-13.174 13.174S2.826 23.276 2.826 16 8.724 2.826 16 2.826 29.174 8.724 29.174 16z" style="fill:var(--color1, #fdca00)"/><path fill="#9e9e9e" d="M16 32C7.177 32 0 24.823 0 16S7.177 0 16 0s16 7.177 16 16-7.177 16-16 16zM16 .713C7.57.713.713 7.57.713 16S7.57 31.287 16 31.287 31.287 24.43 31.287 16 24.43.713 16 .713z" opacity=".1" style="fill:var(--color2, #9e9e9e)"/><path fill="#fff" d="M21.849 22.562h-.098c.32.147.639.32.959.492H23.152c-.074-.074-.123-.098-.172-.147-.541-.442-1.008-.934-1.475-1.475-.614-.713-1.18-1.475-1.573-2.31-.221-.467-.393-.934-.442-1.45a13.925 13.925 0 0 0-.418-2.458c-.27-1.081-.565-2.138-.836-3.22-.147-.737-.32-1.475-.369-2.212a.522.522 0 0 0-.369-.442c-.197-.074-.369 0-.492.147a1.117 1.117 0 0 0-.197.27c-.074.123-.123.27-.197.418a8.823 8.823 0 0 0-.344-.688 40.269 40.269 0 0 0-.786-1.352c-.123-.197-.27-.344-.492-.418h-.172c-.393.172-.541.393-.516.786.025.172.049.369.123.541.123.393.27.762.418 1.155.025.049.025.074.049.123a.332.332 0 0 1-.098-.074c-.516-.614-1.008-1.229-1.524-1.843a.787.787 0 0 0-.934-.221c-.295.123-.442.418-.369.786.049.295.197.516.344.762.565.86 1.131 1.745 1.696 2.605.025.025.049.074.074.123-.049 0-.049 0-.074-.025-.319-.172-.614-.123-.909.074s-.59.369-.86.565c-.147.098-.27.197-.369.319-.369.418-.565.934-.811 1.425v.025c0 .098-.049.123-.147.147-.295.074-.393.393-.246.639.098.147.172.319.221.492a.537.537 0 0 1-.074.467.873.873 0 0 0-.098.27c-.025.442.172.811.492 1.106.221.197.418.418.639.614.147.147.295.32.467.442s.369.246.565.344c.27.147.492.344.688.59.172.221.369.442.565.614.147.123.319.221.516.295.639.246 1.229.565 1.622 1.155.221.32.467.614.688.934a.273.273 0 0 0 .246.123h.467l-.295-.369c-.049-.049-.098-.123-.098-.197 0 0 0-.025-.025-.025-.147-.221-.295-.418-.418-.639a3.406 3.406 0 0 0-1.327-1.18c-.246-.123-.516-.221-.762-.32a.743.743 0 0 1-.319-.221c-.197-.221-.393-.442-.565-.664s-.369-.393-.639-.516a6.662 6.662 0 0 1-.713-.418c-.049-.025-.074-.074-.123-.123-.27-.27-.541-.565-.811-.836-.098-.123-.197-.246-.27-.393-.074-.172-.074-.32.049-.492.147-.221.098-.467.049-.713-.025-.147-.098-.295-.147-.442.27 0 .516.049.762.123.025 0 .049.074.074.098.098.246.172.492.27.713.147.418.442.762.762 1.081.221.221.492.27.762.123a9.258 9.258 0 0 0 1.327-.836c.319-.246.344-.614.246-.983a2.084 2.084 0 0 0-.27-.639c-.221-.393-.565-.688-.934-.934a1.317 1.317 0 0 0-.319-.172c-.295-.098-.541-.049-.762.147-.098.098-.197.221-.295.319-.172.221-.369.442-.541.664-.025.049-.098.074-.147.098-.098.025-.172.074-.147.221-.147-.147-.295-.27-.418-.393-.049-.049-.049-.147-.049-.197.025-.074.074-.147.123-.221.049-.098.147-.197.172-.319.098-.344.295-.59.541-.786s.492-.369.762-.541c.442-.27.737-.221 1.131.074.319.246.639.516.934.762.049.025.074.074.147.098a.341.341 0 0 1-.049-.147c-.221-.639-.541-1.204-.885-1.77-.565-.885-1.155-1.77-1.72-2.654-.098-.147-.172-.319-.246-.467-.049-.098-.025-.197.074-.246s.221-.074.319 0l.098.098 2.359 2.949c.246.319.492.664.737 1.008a.304.304 0 0 0 .123.123c-.098-.344-.147-.688-.27-1.032-.27-.86-.565-1.696-.86-2.556-.074-.246-.172-.492-.221-.762-.049-.147 0-.221.123-.319.049.074.123.147.172.246.295.516.59 1.032.86 1.548.467.983.885 1.966 1.327 2.949.025.049.049.074.074.123l-.074-.565a35.676 35.676 0 0 1-.172-1.622c-.025-.221 0-.467.025-.688.025-.123.098-.246.147-.369h.049c0 .098 0 .172.025.27.197.934.369 1.868.59 2.777s.492 1.819.688 2.753c.147.639.221 1.303.32 1.966.074.713.295 1.352.639 1.991.541 1.057 1.278 1.966 2.089 2.826.025.025.074.049.123.098zm-8.897-7.275c.172-.197.344-.418.516-.639.098-.123.172-.147.27-.074.197.123.418.27.59.418.27.246.516.541.664.909.098.27.049.393-.197.565a6.3 6.3 0 0 0-.639.492c-.393.344-.639.32-.983-.074a1.722 1.722 0 0 1-.344-.664c-.049-.172-.147-.319-.246-.516.098-.123.246-.27.369-.418z" style="fill:var(--color3, #fff)"/></symbol><symbol id="icon-preferences-4" viewBox="0 0 32 32"><path fill="#fdca00" d="M29.174 16c0 7.276-5.898 13.174-13.174 13.174S2.826 23.276 2.826 16 8.724 2.826 16 2.826 29.174 8.724 29.174 16z" style="fill:var(--color1, #fdca00)"/><path fill="#9e9e9e" d="M16 32C7.177 32 0 24.823 0 16S7.177 0 16 0s16 7.177 16 16-7.177 16-16 16zM16 .713C7.57.713.713 7.57.713 16S7.57 31.287 16 31.287 31.287 24.43 31.287 16 24.43.713 16 .713z" opacity=".1" style="fill:var(--color2, #9e9e9e)"/><path fill="#fff" d="M19.662 14.525h3.146c.664 0 1.106.418 1.106 1.081V20.3c0 .639-.442 1.081-1.081 1.081H11.748c-.639 0-1.057-.442-1.081-1.081v-2.605H9.094c-.639 0-1.081-.442-1.081-1.081V11.92c0-.664.418-1.106 1.081-1.106h9.462c.639 0 1.081.442 1.081 1.081v2.433a.535.535 0 0 1 .025.197zm-.516.541v-3.097c0-.418-.197-.614-.614-.614H9.168c-.442 0-.614.172-.614.614v3.072c3.539.025 7.054.025 10.593.025zm.516.516h1.819c.197 0 .27.049.344.246.147.393.418.688.811.86.147.049.197.147.197.295v1.966c0 .147-.049.246-.197.295-.393.172-.664.467-.836.885-.074.172-.147.221-.32.221h-8.455c-.147 0-.246-.074-.319-.221a1.419 1.419 0 0 0-.836-.885.296.296 0 0 1-.197-.295V17.696h-.541v2.581c0 .418.172.614.614.614h10.962c.418 0 .59-.172.59-.614v-4.621c0-.418-.172-.59-.59-.59H19.71c-.025 0-.098.049-.098.074.049.147.049.295.049.442zm-11.109.541c0 .221-.025.418 0 .639a.724.724 0 0 0 .172.295c.098.123.246.123.393.123h9.585a.469.469 0 0 0 .393-.393c.025-.221 0-.418 0-.664H8.552zm10.249 3.687c.025.025.025.025.049.025h2.482c.049 0 .098-.049.123-.098.172-.344.442-.614.762-.811.049-.025.074-.098.074-.147v-1.598c0-.049-.049-.123-.098-.147a2.019 2.019 0 0 1-.762-.811c-.049-.074-.074-.098-.172-.098h-1.622v.541c0 .147-.049.27-.074.418-.025.074-.025.147-.025.221.098.369.123.762.049 1.155-.074.541-.344.983-.786 1.352zm-3.343-2.114c-.147.713.221 1.475.86 1.868.688.393 1.524.32 2.138-.172.492-.418.786-1.155.614-1.745a7.314 7.314 0 0 1-.737.049h-2.875zm.32 2.138c-.344-.295-.565-.59-.713-.959s-.172-.762-.147-1.131h-2.654c0 .025-.025.025-.025.049v1.032c0 .049.049.098.098.123.319.197.565.467.737.786.049.098.098.123.197.123h2.065c.147-.025.27-.025.442-.025z" style="fill:var(--color3, #fff)"/><path fill="#fff" d="M9.61 12.412v-.516h5.8v.516h-5.8zM9.61 14.525v-1.573h1.573v1.573H9.61zM18.605 11.896v.516h-1.032v-.516h1.032zM15.975 11.896h1.032v.516h-1.032v-.516z" style="fill:var(--color3, #fff)"/></symbol><symbol id="icon-preferences-3" viewBox="0 0 32 32"><path fill="#fdca00" d="M29.174 16c0 7.276-5.898 13.174-13.174 13.174S2.826 23.276 2.826 16 8.724 2.826 16 2.826 29.174 8.724 29.174 16z" style="fill:var(--color1, #fdca00)"/><path fill="#9e9e9e" d="M16 32C7.177 32 0 24.823 0 16S7.177 0 16 0s16 7.177 16 16-7.177 16-16 16zM16 .713C7.57.713.713 7.57.713 16S7.57 31.287 16 31.287 31.287 24.43 31.287 16 24.43.713 16 .713z" opacity=".1" style="fill:var(--color2, #9e9e9e)"/><path fill="#fff" d="M14.771 13.395c-.492.418-.909.885-1.057 1.524-.074.246-.098.516-.147.786-.098.516-.393.909-.786 1.229a.298.298 0 0 1-.393-.025c-.098-.123-.098-.246 0-.369.025-.049.074-.074.123-.123.393-.32.541-.737.59-1.204a3.2 3.2 0 0 1 .909-1.868l.369-.369a1.211 1.211 0 0 0-.197-.172c-.025-.025-.074-.025-.098-.025-.541.172-1.008.049-1.425-.369-.221-.221-.442-.418-.639-.639-.393-.418-.467-1.057-.147-1.524.147-.246.344-.27.541-.049.246.246.467.492.688.737l.614-.614-.074-.074-.664-.664c-.147-.147-.098-.442.049-.541a1.226 1.226 0 0 1 1.524.123c.27.246.541.516.786.786.319.369.393.786.246 1.253-.025.074-.025.123.049.197.369.344.713.713 1.081 1.081.123-.123.221-.246.344-.344.295-.295.639-.393 1.032-.27s.639.418.713.836c0 .074.049.098.123.123.492.074.786.393.86.86 0 .049.025.098.098.098.59.123.811.393.836 1.008v.049c.492.074.836.369.934.86.098.516-.221.86-.59 1.155l1.106 1.106c.246.246.344.565.246.909-.197.786-1.131 1.057-1.696.492-.344-.32-.664-.664-1.008-1.008-.025-.025-.049-.074-.098-.123-.147.147-.27.27-.418.393-.516.492-1.155.786-1.892.885-.442.049-.836.172-1.131.541l-.123.123c-.123.123-.295.098-.418 0-.098-.123-.098-.27.025-.393.418-.516.983-.762 1.647-.836a2.496 2.496 0 0 0 1.499-.737l2.089-2.089c.197-.197.221-.442.049-.639a.412.412 0 0 0-.492-.123c-.123.049-.246.074-.344-.049-.098-.098-.098-.221-.025-.369a.86.86 0 0 0 .049-.246c.025-.27-.197-.467-.467-.418a.192.192 0 0 0-.123.049.234.234 0 0 1-.295-.074c-.074-.074-.098-.172-.049-.27.025-.098.049-.197.049-.295a.414.414 0 0 0-.565-.319c-.123.049-.246.074-.344-.025s-.098-.221-.049-.344a.456.456 0 0 0-.147-.516c-.172-.123-.418-.098-.59.049l-1.008 1.008-.614.614c-.221.221-.442.147-.516-.147 0-.025-.025-.049-.049-.074-.246-.197-.418-.369-.59-.541zM12.24 10.79c-.025.246.025.418.172.565l.737.737a.667.667 0 0 0 .836.074c.197-.123.295-.098.442.049l1.18 1.18c.025.025.049.074.074.123.221-.246.418-.467.639-.688a29.605 29.605 0 0 1-1.253-1.253c-.147-.147-.172-.246-.049-.442.172-.27.147-.59-.074-.811-.246-.27-.492-.516-.762-.762-.147-.147-.319-.197-.565-.172l.639.639c.172.172.172.319 0 .492l-.885.885c-.172.172-.319.172-.492 0a15.127 15.127 0 0 1-.639-.614zm7.766 7.078c.369.369.737.713 1.131 1.081.123.123.295.147.467.098s.246-.172.27-.344a.495.495 0 0 0-.147-.442l-.983-.983-.074-.074-.664.664zM11.306 16.713a.883.883 0 0 1 .246.172l1.72 1.72 2.359 2.359c.197.197.197.32 0 .492l-1.376 1.376c-.172.172-.319.197-.516 0-1.352-1.352-2.704-2.704-4.055-4.08-.172-.172-.172-.32 0-.492l1.401-1.401c.049-.049.147-.098.221-.147zm-1.057 1.794 3.76 3.76 1.057-1.057-3.76-3.76-1.057 1.057z" style="fill:var(--color3, #fff)"/></symbol><symbol id="icon-preferences-2" viewBox="0 0 32 32"><path fill="#fdca00" d="M29.174 16c0 7.276-5.898 13.174-13.174 13.174S2.826 23.276 2.826 16 8.724 2.826 16 2.826 29.174 8.724 29.174 16z" style="fill:var(--color1, #fdca00)"/><path fill="#9e9e9e" d="M16 32C7.177 32 0 24.823 0 16S7.177 0 16 0s16 7.177 16 16-7.177 16-16 16zM16 .713C7.57.713.713 7.57.713 16S7.57 31.287 16 31.287 31.287 24.43 31.287 16 24.43.713 16 .713z" opacity=".1" style="fill:var(--color2, #9e9e9e)"/><path fill="#fff" d="M19.662 14.304v4.178h4.055c.32 0 .492.123.516.393.049.295-.147.516-.442.541h-4.178c-.123 0-.197.025-.246.147-.393.639-.983.959-1.72.959h-3.195c-.762 0-1.352-.344-1.745-.983-.049-.098-.123-.123-.221-.123h-4.08c-.393 0-.59-.246-.516-.59.049-.197.172-.32.369-.344h4.178V16.86h-.86c-.344 0-.565-.295-.442-.639.074-.172.221-.295.418-.295h.885v-1.622H8.407c-.369 0-.565-.197-.541-.516.025-.221.147-.369.369-.393.074-.025.147-.025.221-.025h3.957c.123 0 .197-.025.27-.147.369-.614.909-.959 1.622-.959a77.803 77.803 0 0 1 3.416 0c.713 0 1.278.344 1.671.959.074.123.147.147.27.147h4.08c.369 0 .59.221.516.565-.025.197-.172.319-.369.344H19.932c-.123.025-.197.025-.27.025zm-6.316 2.556v1.598c0 .664.442 1.131 1.131 1.131h3.121c.688 0 1.131-.442 1.131-1.131v-4.129c0-.688-.442-1.131-1.131-1.131h-3.269c-.59 0-.983.393-.983.983V15.926h3.023c.32 0 .516.172.492.467 0 .27-.197.467-.492.467h-3.023z" style="fill:var(--color3, #fff)"/><path fill="#fff" d="M9.045 17.155c-.418 0-.762-.344-.762-.762s.344-.762.762-.762c.418 0 .737.344.762.737a.771.771 0 0 1-.762.786zM22.095 17.155c-.418 0-.762-.344-.762-.762s.344-.737.762-.737c.418 0 .762.344.762.762 0 .393-.344.737-.762.737z" style="fill:var(--color3, #fff)"/></symbol><symbol id="icon-preferences-1" viewBox="0 0 32 32"><path fill="#fdca00" d="M29.174 16c0 7.276-5.898 13.174-13.174 13.174S2.826 23.276 2.826 16 8.724 2.826 16 2.826 29.174 8.724 29.174 16z" style="fill:var(--color1, #fdca00)"/><path fill="#9e9e9e" d="M16 32C7.177 32 0 24.823 0 16S7.177 0 16 0s16 7.177 16 16-7.177 16-16 16zM16 .713C7.57.713.713 7.57.713 16S7.57 31.287 16 31.287 31.287 24.43 31.287 16 24.43.713 16 .713z" opacity=".1" style="fill:var(--color2, #9e9e9e)"/><path fill="#fff" d="M15.386 13.247h.86v4.817h-6.12v2.605h.442c.246-1.106.909-1.745 2.065-1.745.786 0 1.696.614 1.868 1.745h3.539a1.97 1.97 0 0 1 .811-1.376 1.885 1.885 0 0 1 1.131-.369c.492 0 .934.172 1.327.492.369.32.59.762.639 1.253h.442v-3.048H18.9v-.885h3.22a.397.397 0 0 1-.049-.123 74.699 74.699 0 0 1-.664-1.352.481.481 0 0 0-.467-.295h-2.409c-.32 0-.492.172-.492.492v3.416h-.885v-3.466c0-.713.467-1.229 1.155-1.352H20.964c.565 0 .959.246 1.204.737a84.61 84.61 0 0 1 1.057 2.138.35.35 0 0 1 .049.172v3.49c0 .516-.369.885-.909.909h-.442c-.074 0-.123.025-.147.098-.32.762-1.032 1.229-1.843 1.204-.836-.025-1.425-.442-1.77-1.204-.049-.074-.074-.123-.172-.123h-3.49c-.098 0-.123.025-.172.123-.369.762-.959 1.18-1.794 1.204-.786.025-1.499-.467-1.794-1.204-.025-.074-.074-.098-.172-.098-.197 0-.393 0-.59-.025a.842.842 0 0 1-.713-.811v-3.539h6.12v-3.883zm4.596 6.538c-.614 0-1.081.492-1.081 1.081 0 .614.492 1.106 1.106 1.106s1.081-.492 1.081-1.081c0-.614-.492-1.106-1.106-1.106zm-8.529 1.106c0 .614.492 1.106 1.106 1.106a1.09 1.09 0 0 0 1.081-1.081c0-.614-.492-1.081-1.081-1.081-.614-.049-1.106.442-1.106 1.057zM12.363 9.339v1.499a.895.895 0 0 1-.049.246c-.123.27-.27.565-.418.86-.27-.123-.516-.246-.786-.393.098-.221.221-.418.319-.639a.657.657 0 0 0 .074-.295V8.258c.221 0 .418.025.639 0 .295-.049.516.074.713.295a172.945 172.945 0 0 0 2.998 2.998c.025.025.074.049.098.074l-.639.639c-.959-.983-1.942-1.966-2.925-2.949l-.025.025z" style="fill:var(--color3, #fff)"/><path fill="#f9f9f9" d="M10.74 16.074v-2.753l-.442.369v-.565l.492-.393h.492v3.318h-.541zM13.763 15.386a.935.935 0 0 1-.049.295.86.86 0 0 1-.147.221l-.221.147c-.098.025-.172.049-.27.049s-.197-.025-.295-.049a.362.362 0 0 1-.221-.147.354.354 0 0 1-.147-.221c-.049-.098-.049-.197-.049-.295V13.42c0-.123.025-.221.049-.295a.86.86 0 0 1 .147-.221l.221-.147c.098-.025.172-.049.295-.049.221 0 .393.074.516.197s.197.295.197.516v1.966zm-.516-1.991c0-.074-.025-.123-.049-.147a.341.341 0 0 0-.147-.049c-.074 0-.123.025-.147.049-.049.025-.074.098-.074.147v2.015c0 .074.025.123.074.147s.098.049.147.049a.265.265 0 0 0 .147-.049c.049-.025.049-.098.049-.147v-2.015z" style="fill:var(--color6, #f9f9f9)"/></symbol><symbol id="icon-phone" viewBox="0 0 32 32"><path d="M28.466 16.09c0 6.905-5.598 12.503-12.503 12.503S3.46 22.995 3.46 16.09 9.058 3.587 15.963 3.587 28.466 9.185 28.466 16.09z"/><path fill="#9e9e9e" d="M15.963 31.281C7.586 31.281.771 24.466.771 16.089S7.586.897 15.963.897c8.377 0 15.192 6.815 15.192 15.192S24.34 31.281 15.963 31.281zm0-29.7c-8 0-14.509 6.509-14.509 14.509s6.509 14.509 14.509 14.509S30.472 24.09 30.472 16.09 23.963 1.581 15.963 1.581z" opacity=".1" style="fill:var(--color2, #9e9e9e)"/><path fill="#f9f9f9" d="M9.473 16.643c-.02-1.474.255-2.897.756-4.279.264-.727.582-1.431.958-2.107.357-.641.913-.963 1.645-.978.306-.006.612-.001.918-.001.72.001 1.284.464 1.348 1.178.044.497.022 1.002-.007 1.502-.02.354-.217.638-.493.86-.53.426-1.063.849-1.592 1.275a.86.86 0 0 0-.336.699c-.002 1.216-.002 2.431 0 3.647a.79.79 0 0 0 .325.648c.363.281.726.56 1.091.837.146.11.295.216.446.318.381.261.586.618.59 1.082.004.391.004.782 0 1.173a1.312 1.312 0 0 1-1.335 1.319c-.403 0-.81.017-1.209-.026-.6-.064-1.06-.386-1.351-.913-.759-1.372-1.324-2.82-1.582-4.372-.102-.614-.142-1.239-.211-1.859l.038-.004zm.464.017c-.005.503.053 1.137.163 1.766.263 1.504.804 2.908 1.544 4.238.213.383.549.624.985.667.375.037.755.023 1.133.025.54.002.908-.362.914-.898.004-.37.006-.739.006-1.109a.829.829 0 0 0-.386-.72c-.175-.12-.348-.244-.518-.371-.352-.266-.702-.535-1.052-.804-.331-.254-.511-.593-.513-1.008a345.924 345.924 0 0 1 0-3.673c.002-.423.181-.772.512-1.039.53-.426 1.062-.849 1.592-1.275a.868.868 0 0 0 .34-.697c.003-.387.003-.774 0-1.16a.858.858 0 0 0-.87-.862 74.262 74.262 0 0 0-.944 0c-.57.003-.996.255-1.264.756-.18.337-.351.679-.509 1.027-.718 1.59-1.135 3.25-1.135 5.14z" style="fill:var(--color6, #f9f9f9)"/><path fill="#f9f9f9" d="M16.212 14.743v1.264h5.633v.414l.029.013 1.333-1.525-1.352-1.448v.55h-6.108v-.448h5.643V12.29l2.436 2.609-2.431 2.779v-1.207h-5.641v-.565l-1.355 1.452 1.358 1.553v-.443h6.175v.448h-5.715v1.17a.773.773 0 0 0-.029.015l-2.408-2.752 2.432-2.605z" style="fill:var(--color6, #f9f9f9)"/></symbol><symbol id="icon-location" viewBox="0 0 32 32"><path d="M28.466 16.09c0 6.905-5.598 12.503-12.503 12.503S3.46 22.995 3.46 16.09 9.058 3.587 15.963 3.587 28.466 9.185 28.466 16.09z" /><path fill="#9e9e9e" d="M15.963 31.281C7.586 31.281.771 24.466.771 16.089S7.586.897 15.963.897c8.377 0 15.192 6.815 15.192 15.192S24.34 31.281 15.963 31.281zm0-29.7c-8 0-14.509 6.509-14.509 14.509s6.509 14.509 14.509 14.509S30.472 24.09 30.472 16.09 23.963 1.581 15.963 1.581z" opacity=".1" style="fill:var(--color2, #9e9e9e)"/><path fill="#fff" d="M16.689 20.509H17.787c.148.001.248.093.25.225s-.099.23-.244.23h-3.615c-.147 0-.246-.096-.247-.228s.099-.227.246-.228c.323-.002.646-.001.969-.001h.134l-.217-.27c-.954-1.189-1.871-2.405-2.626-3.734a11.905 11.905 0 0 1-.754-1.569c-.403-1.042-.33-2.07.114-3.069.677-1.524 1.862-2.425 3.501-2.708.835-.145 1.65-.027 2.435.294.139.057.197.177.15.3-.051.132-.18.18-.331.12-1.051-.418-2.112-.439-3.15.011-1.448.628-2.269 1.753-2.499 3.312-.102.689.083 1.325.354 1.946.378.866.866 1.671 1.396 2.451.658.97 1.371 1.897 2.123 2.795.129.154.276.165.395.022 1.161-1.404 2.271-2.845 3.139-4.456.188-.35.349-.716.507-1.081.408-.944.33-1.882-.055-2.811a4.01 4.01 0 0 0-.857-1.28c-.094-.096-.113-.192-.06-.288.052-.094.136-.135.24-.113.048.011.1.039.135.075.708.718 1.124 1.579 1.284 2.575.134.835-.068 1.606-.403 2.355-.467 1.041-1.064 2.007-1.735 2.926-.517.708-1.064 1.396-1.597 2.093l-.079.105z" style="fill:var(--color3, #fff)"/><path fill="#fff" d="M15.976 22.562H9.864c-.42 0-.742-.314-.719-.714a.733.733 0 0 1 .089-.302c.459-.831.923-1.659 1.387-2.487a.692.692 0 0 1 .645-.375h1.562c.171 0 .281.093.277.233-.003.135-.11.223-.275.223-.513 0-1.026.002-1.539-.001a.295.295 0 0 0-.286.165c-.452.813-.907 1.624-1.361 2.436-.103.184-.004.356.206.364h12.258c.22-.005.32-.177.214-.367l-1.283-2.297c-.024-.043-.051-.085-.072-.13-.06-.124-.155-.174-.292-.174-.517.004-1.034.003-1.551.001-.189-.001-.304-.145-.245-.304a.216.216 0 0 1 .218-.151c.555-.001 1.11-.006 1.665.003a.634.634 0 0 1 .562.336c.481.849.962 1.698 1.428 2.555.234.429-.091.957-.584.982-.042.002-.084.001-.125.001h-6.066zM13.703 13.435c.001-1.239 1.009-2.268 2.231-2.278.172-.001.28.087.278.23-.001.138-.102.222-.271.226a1.825 1.825 0 1 0 1.411.617c-.022-.026-.046-.05-.069-.076-.098-.11-.101-.246-.008-.336.098-.093.229-.088.335.019.264.267.451.582.559.941.459 1.519-.745 3.036-2.329 2.936a2.284 2.284 0 0 1-2.136-2.28z" style="fill:var(--color3, #fff)"/><path fill="#fff" d="M11.877 21.649h-.866c-.168 0-.271-.084-.274-.223-.003-.143.102-.233.275-.233h1.732c.168 0 .271.084.274.223.003.142-.103.233-.275.233h-.866zM20.095 21.193h.866c.165 0 .268.09.268.228s-.104.228-.269.228h-1.743c-.165 0-.268-.09-.268-.228 0-.14.103-.227.269-.228h.877zM12.107 19.824c.375-.079.682.06.964.291.091.074.196.13.292.198.116.082.144.208.075.317-.072.113-.204.14-.328.06-.185-.119-.365-.245-.551-.363a.283.283 0 0 0-.146-.044c-.243-.004-.486-.002-.729-.003-.158-.001-.259-.088-.262-.223-.003-.139.101-.231.264-.232h.421zM19.856 20.28c-.253-.066-.511.048-.747.241-.076.062-.162.112-.245.165-.127.08-.255.06-.331-.051s-.048-.243.074-.326c.216-.148.434-.294.654-.435a.347.347 0 0 1 .17-.05c.284-.004.569-.003.854-.002.157 0 .258.09.259.225.002.139-.102.229-.266.23-.122.002-.243.001-.423.001z" style="fill:var(--color3, #fff)"/></symbol><symbol id="icon-evakuator" viewBox="0 0 32 32"><path d="M28.466 16.09c0 6.905-5.598 12.503-12.503 12.503S3.46 22.995 3.46 16.09 9.058 3.587 15.963 3.587 28.466 9.185 28.466 16.09z" /><path fill="#9e9e9e" d="M15.963 31.281C7.586 31.281.771 24.466.771 16.089S7.586.897 15.963.897c8.377 0 15.192 6.815 15.192 15.192S24.34 31.281 15.963 31.281zm0-29.7c-8 0-14.509 6.509-14.509 14.509s6.509 14.509 14.509 14.509S30.472 24.09 30.472 16.09 23.963 1.581 15.963 1.581z" opacity=".1" style="fill:var(--color2, #9e9e9e)"/><path fill="#fff" d="M11.634 12.213v1.28c0 .055.001.111-.007.165a.313.313 0 0 1-.622.003c-.008-.054-.007-.11-.007-.165-.001-.573.002-1.147-.002-1.72a.447.447 0 0 1 .144-.351c.185-.175.362-.359.542-.539.156-.155.252-.174.457-.086 1.907.815 3.813 1.631 5.721 2.443a.71.71 0 0 0 .269.054c.977.003 1.954.002 2.931-.003.098-.001.15.029.199.114.391.68.787 1.358 1.185 2.035a.519.519 0 0 0 .145.154c.251.175.507.342.756.517a.187.187 0 0 1 .072.13c.003 1.215 0 2.43-.002 3.645 0 .025-.004.05-.008.09h-.42c-.247 0-.493.004-.739-.003-.096-.003-.137.02-.164.122-.19.696-.817 1.167-1.537 1.166s-1.344-.477-1.531-1.174c-.023-.086-.052-.114-.143-.114-1.856.003-3.712.003-5.569 0-.082 0-.114.024-.136.107a1.581 1.581 0 0 1-1.526 1.18 1.578 1.578 0 0 1-1.541-1.16c-.027-.096-.067-.117-.156-.116-.272.005-.544.003-.816.002-.247-.002-.363-.121-.364-.371-.001-.403 0-.806 0-1.226h-.259c-.234-.003-.379-.125-.378-.322s.143-.316.38-.316H16.409c0-.299.002-.586-.002-.873 0-.031-.022-.063-.036-.093-.475-.985-.951-1.971-1.429-2.955a.277.277 0 0 0-.115-.124c-1.038-.493-2.078-.982-3.118-1.471-.02-.009-.039-.015-.078-.028zm6.696 7.129c.189 0 .363-.007.536.003.1.005.136-.03.164-.124a1.58 1.58 0 0 1 1.66-1.131c.67.064 1.194.495 1.397 1.147.012.036.037.097.058.098.21.007.419.004.628.004v-1.272c-.107 0-.204.004-.301-.001-.192-.008-.326-.143-.324-.323s.137-.309.33-.314c.1-.003.2-.001.306-.001v-.467c-.001-.153.045-.331-.018-.451s-.239-.178-.361-.27a.415.415 0 0 0-.27-.083c-1.219.003-2.439.002-3.657.002h-.147v3.181zm-.65-.937h-5.078c.273.227.464.483.551.803.028.105.073.137.181.136 1.401-.004 2.803-.003 4.204-.003h.143v-.936zm-5.801-6.793c.042.021.082.043.123.062 1.599.753 3.198 1.507 4.799 2.256.176.082.252.202.252.397-.004 1.091-.003 2.182-.003 3.273v.149h.629c.003-.036.007-.065.007-.093 0-1.231-.001-2.462.003-3.693 0-.097-.052-.119-.12-.148l-5.389-2.304c-.178-.076-.178-.076-.301.102zm7.724 3.905h2.14l-.059-.109c-.267-.458-.535-.914-.797-1.374-.045-.079-.097-.101-.181-.1-.327.004-.653.002-.98.003-.04 0-.08.005-.122.007v1.572zm-7.973 5.11a.953.953 0 1 0 .008-1.909.959.959 0 0 0-.959.953.951.951 0 0 0 .951.957zm8.923 0a.953.953 0 0 0 .957-.953c0-.525-.43-.956-.955-.957s-.954.429-.955.955a.95.95 0 0 0 .953.954zm-1.599-5.106v-1.577h-.618v1.577h.618zm-9.543 3.832c.207 0 .405.004.603-.004.028-.001.061-.054.079-.09.097-.187.178-.382.287-.561.066-.108.172-.191.27-.296H9.41v.951zm6.976-4.001.027-.006c0-.281.001-.562-.002-.843 0-.024-.02-.058-.041-.068-.172-.084-.347-.164-.552-.259l.569 1.176z" style="fill:var(--color3, #fff)"/><path fill="#fff" d="M11.629 15.251c0 .195.003.39 0 .585-.014.797-.693 1.112-1.317.901-.371-.125-.618-.529-.581-.922a.315.315 0 0 1 .62-.049c.012.049.013.101.021.151.025.161.11.237.274.244.233.011.342-.084.345-.319.006-.352.002-.704.002-1.056 0-.072-.003-.144.002-.216.012-.191.152-.324.328-.319.172.005.302.139.306.325.003.224 0 .449 0 .674zM11.953 19.671a.316.316 0 0 1-.312.319.313.313 0 0 1-.323-.307.318.318 0 0 1 .317-.328c.172 0 .317.143.318.316zM20.872 19.672a.315.315 0 0 1-.313.318.313.313 0 0 1-.323-.307.32.32 0 0 1 .318-.328.323.323 0 0 1 .318.317z" style="fill:var(--color3, #fff)"/></symbol><symbol id="icon-burger-menu" viewBox="0 0 32 32"><path d="M6.4 11.733V9.6h19.2v2.133H6.4zm0 5.334h19.2v-2.133H6.4v2.133zm0 5.333h19.2v-2.133H6.4V22.4z"/></symbol><symbol id="icon-close" viewBox="0 0 32 32"><path d="m26.667 7.303-1.97-1.97-7.808 7.808-7.808-7.808-1.97 1.97 7.808 7.808-7.808 7.808 1.97 1.97 7.808-7.808 7.808 7.808 1.97-1.97-7.808-7.808 7.808-7.808z"/></symbol></defs></svg>